<svg width="96" height="96" xmlns="http://www.w3.org/2000/svg" xmlns:xlink="http://www.w3.org/1999/xlink" xml:space="preserve" overflow="hidden"><defs><clipPath id="clip0"><rect x="592" y="312" width="96" height="96"/></clipPath></defs><g clip-path="url(#clip0)" transform="translate(-592 -312)"><path d="M639.808 316.917 594 372.366 620.216 400.219 685.969 388.994ZM640.759 329.529 676.031 384.6 625.289 393.267ZM633.51 333.961 619.689 390.9 602 372.107Z" fill="#000000" fill-rule="nonzero" fill-opacity="1"/><path d="M649.724 369.143 650.771 367.438 654.179 369.53 653.132 371.235Z" fill="#000000" fill-rule="nonzero" fill-opacity="1"/><path d="M643.779 356.861 645.759 356.579 646.323 360.539 644.343 360.821Z" fill="#000000" fill-rule="nonzero" fill-opacity="1"/><path d="M655.689 372.806 656.735 371.101 660.143 373.193 659.097 374.898Z" fill="#000000" fill-rule="nonzero" fill-opacity="1"/><path d="M667.64 380.103 668.686 378.398 672.095 380.491 671.049 382.195Z" fill="#000000" fill-rule="nonzero" fill-opacity="1"/><path d="M661.656 376.481 662.702 374.777 666.111 376.87 665.065 378.574Z" fill="#000000" fill-rule="nonzero" fill-opacity="1"/><path d="M642.788 349.932 644.768 349.65 645.332 353.61 643.352 353.892Z" fill="#000000" fill-rule="nonzero" fill-opacity="1"/><path d="M645.129 366.291 647.184 367.552 648.23 365.847 646.977 365.078 646.752 363.505 644.771 363.787 645.129 366.291Z" fill="#000000" fill-rule="nonzero" fill-opacity="1"/><path d="M640.811 336.069 642.791 335.786 643.358 339.746 641.377 340.029Z" fill="#000000" fill-rule="nonzero" fill-opacity="1"/><path d="M641.801 342.999 643.782 342.716 644.348 346.676 642.367 346.959Z" fill="#000000" fill-rule="nonzero" fill-opacity="1"/><path d="M611.611 369.703 615.576 369.176 615.839 371.158 611.874 371.686Z" fill="#000000" fill-rule="nonzero" fill-opacity="1"/><path d="M604.671 370.63 608.636 370.103 608.9 372.085 604.935 372.612Z" fill="#000000" fill-rule="nonzero" fill-opacity="1"/><path d="M618.548 368.779 622.513 368.251 622.777 370.234 618.812 370.761Z" fill="#000000" fill-rule="nonzero" fill-opacity="1"/><path d="M639.365 366.003 643.331 365.476 643.594 367.458 639.629 367.986Z" fill="#000000" fill-rule="nonzero" fill-opacity="1"/><path d="M632.407 366.924 636.372 366.396 636.636 368.378 632.671 368.906Z" fill="#000000" fill-rule="nonzero" fill-opacity="1"/></g></svg>